<mxfile host="65bd71144e">
    <diagram id="jo8jkVlGfvbm2125seTH" name="Page-1">
        <mxGraphModel dx="486" dy="303" grid="1" gridSize="10" guides="1" tooltips="1" connect="1" arrows="1" fold="1" page="1" pageScale="1" pageWidth="850" pageHeight="1100" math="0" shadow="0">
            <root>
                <mxCell id="0"/>
                <mxCell id="1" parent="0"/>
                <mxCell id="5" style="edgeStyle=none;html=1;exitX=0.5;exitY=1;exitDx=0;exitDy=0;entryX=0.5;entryY=0;entryDx=0;entryDy=0;endArrow=none;endFill=0;fillColor=#2A2A2A;" parent="1" source="2" target="3" edge="1">
                    <mxGeometry relative="1" as="geometry"/>
                </mxCell>
                <mxCell id="8" style="edgeStyle=none;html=1;exitX=0.5;exitY=1;exitDx=0;exitDy=0;entryX=0.5;entryY=0;entryDx=0;entryDy=0;endArrow=none;endFill=0;fillColor=#2A2A2A;" parent="1" source="2" target="7" edge="1">
                    <mxGeometry relative="1" as="geometry"/>
                </mxCell>
                <mxCell id="2" value="A" style="ellipse;whiteSpace=wrap;html=1;aspect=fixed;" parent="1" vertex="1">
                    <mxGeometry x="160" y="40" width="40" height="40" as="geometry"/>
                </mxCell>
                <mxCell id="10" style="edgeStyle=none;html=1;exitX=0.5;exitY=1;exitDx=0;exitDy=0;entryX=0.5;entryY=0;entryDx=0;entryDy=0;endArrow=none;endFill=0;fillColor=#2A2A2A;" parent="1" source="3" target="9" edge="1">
                    <mxGeometry relative="1" as="geometry"/>
                </mxCell>
                <mxCell id="12" style="edgeStyle=none;html=1;exitX=0.5;exitY=1;exitDx=0;exitDy=0;entryX=0.5;entryY=0;entryDx=0;entryDy=0;endArrow=none;endFill=0;fillColor=#2A2A2A;" parent="1" source="3" target="11" edge="1">
                    <mxGeometry relative="1" as="geometry"/>
                </mxCell>
                <mxCell id="3" value="B" style="ellipse;whiteSpace=wrap;html=1;aspect=fixed;" parent="1" vertex="1">
                    <mxGeometry x="100" y="120" width="40" height="40" as="geometry"/>
                </mxCell>
                <mxCell id="14" style="edgeStyle=none;html=1;exitX=0.5;exitY=1;exitDx=0;exitDy=0;entryX=0.5;entryY=0;entryDx=0;entryDy=0;endArrow=none;endFill=0;fillColor=#2A2A2A;" parent="1" source="7" target="13" edge="1">
                    <mxGeometry relative="1" as="geometry"/>
                </mxCell>
                <mxCell id="7" value="C" style="ellipse;whiteSpace=wrap;html=1;aspect=fixed;" parent="1" vertex="1">
                    <mxGeometry x="210" y="120" width="40" height="40" as="geometry"/>
                </mxCell>
                <mxCell id="9" value="E" style="ellipse;whiteSpace=wrap;html=1;aspect=fixed;" parent="1" vertex="1">
                    <mxGeometry x="130" y="200" width="40" height="40" as="geometry"/>
                </mxCell>
                <mxCell id="11" value="D" style="ellipse;whiteSpace=wrap;html=1;aspect=fixed;" parent="1" vertex="1">
                    <mxGeometry x="70" y="200" width="40" height="40" as="geometry"/>
                </mxCell>
                <mxCell id="13" value="F" style="ellipse;whiteSpace=wrap;html=1;aspect=fixed;" parent="1" vertex="1">
                    <mxGeometry x="210" y="200" width="40" height="40" as="geometry"/>
                </mxCell>
            </root>
        </mxGraphModel>
    </diagram>
    <diagram id="EJ8Xw0EXTeu8vVGwwR8V" name="b-model">
        <mxGraphModel dx="486" dy="303" grid="1" gridSize="10" guides="1" tooltips="1" connect="1" arrows="1" fold="1" page="1" pageScale="1" pageWidth="850" pageHeight="1100" math="0" shadow="0">
            <root>
                <mxCell id="ouyzKBNa8mWEohufXi4c-0"/>
                <mxCell id="ouyzKBNa8mWEohufXi4c-1" parent="ouyzKBNa8mWEohufXi4c-0"/>
                <mxCell id="ouyzKBNa8mWEohufXi4c-2" style="edgeStyle=none;html=1;exitX=0.5;exitY=1;exitDx=0;exitDy=0;entryX=0.5;entryY=0;entryDx=0;entryDy=0;endArrow=none;endFill=0;" parent="ouyzKBNa8mWEohufXi4c-1" source="ouyzKBNa8mWEohufXi4c-5" target="ouyzKBNa8mWEohufXi4c-8" edge="1">
                    <mxGeometry relative="1" as="geometry"/>
                </mxCell>
                <mxCell id="ouyzKBNa8mWEohufXi4c-3" style="edgeStyle=none;html=1;exitX=0.5;exitY=1;exitDx=0;exitDy=0;entryX=0.5;entryY=0;entryDx=0;entryDy=0;endArrow=none;endFill=0;" parent="ouyzKBNa8mWEohufXi4c-1" source="ouyzKBNa8mWEohufXi4c-5" target="ouyzKBNa8mWEohufXi4c-9" edge="1">
                    <mxGeometry relative="1" as="geometry"/>
                </mxCell>
                <mxCell id="ouyzKBNa8mWEohufXi4c-5" value="A" style="ellipse;whiteSpace=wrap;html=1;aspect=fixed;" parent="ouyzKBNa8mWEohufXi4c-1" vertex="1">
                    <mxGeometry x="160" y="40" width="40" height="40" as="geometry"/>
                </mxCell>
                <mxCell id="ouyzKBNa8mWEohufXi4c-6" style="edgeStyle=none;html=1;exitX=0.5;exitY=1;exitDx=0;exitDy=0;entryX=0.5;entryY=0;entryDx=0;entryDy=0;endArrow=none;endFill=0;" parent="ouyzKBNa8mWEohufXi4c-1" source="ouyzKBNa8mWEohufXi4c-8" target="ouyzKBNa8mWEohufXi4c-12" edge="1">
                    <mxGeometry relative="1" as="geometry"/>
                </mxCell>
                <mxCell id="ouyzKBNa8mWEohufXi4c-7" style="edgeStyle=none;html=1;exitX=0.5;exitY=1;exitDx=0;exitDy=0;entryX=0.5;entryY=0;entryDx=0;entryDy=0;endArrow=none;endFill=0;" parent="ouyzKBNa8mWEohufXi4c-1" source="ouyzKBNa8mWEohufXi4c-8" target="ouyzKBNa8mWEohufXi4c-13" edge="1">
                    <mxGeometry relative="1" as="geometry"/>
                </mxCell>
                <mxCell id="ouyzKBNa8mWEohufXi4c-8" value="B" style="ellipse;whiteSpace=wrap;html=1;aspect=fixed;" parent="ouyzKBNa8mWEohufXi4c-1" vertex="1">
                    <mxGeometry x="120" y="120" width="40" height="40" as="geometry"/>
                </mxCell>
                <mxCell id="TAftBzIBpC6qEZ9chatx-1" style="edgeStyle=none;html=1;exitX=0.5;exitY=1;exitDx=0;exitDy=0;entryX=0.5;entryY=0;entryDx=0;entryDy=0;endArrow=none;endFill=0;fillColor=#2A2A2A;" parent="ouyzKBNa8mWEohufXi4c-1" source="ouyzKBNa8mWEohufXi4c-9" target="TAftBzIBpC6qEZ9chatx-0" edge="1">
                    <mxGeometry relative="1" as="geometry"/>
                </mxCell>
                <mxCell id="ouyzKBNa8mWEohufXi4c-9" value="C" style="ellipse;whiteSpace=wrap;html=1;aspect=fixed;" parent="ouyzKBNa8mWEohufXi4c-1" vertex="1">
                    <mxGeometry x="200" y="120" width="40" height="40" as="geometry"/>
                </mxCell>
                <mxCell id="ouyzKBNa8mWEohufXi4c-12" value="E" style="ellipse;whiteSpace=wrap;html=1;aspect=fixed;" parent="ouyzKBNa8mWEohufXi4c-1" vertex="1">
                    <mxGeometry x="120" y="200" width="40" height="40" as="geometry"/>
                </mxCell>
                <mxCell id="ouyzKBNa8mWEohufXi4c-13" value="D" style="ellipse;whiteSpace=wrap;html=1;aspect=fixed;" parent="ouyzKBNa8mWEohufXi4c-1" vertex="1">
                    <mxGeometry x="60" y="200" width="40" height="40" as="geometry"/>
                </mxCell>
                <mxCell id="TAftBzIBpC6qEZ9chatx-0" value="F" style="ellipse;whiteSpace=wrap;html=1;aspect=fixed;" parent="ouyzKBNa8mWEohufXi4c-1" vertex="1">
                    <mxGeometry x="200" y="200" width="40" height="40" as="geometry"/>
                </mxCell>
            </root>
        </mxGraphModel>
    </diagram>
    <diagram id="c5XO1YeEKaTtDo2SntMT" name="Page-3">
        <mxGraphModel dx="486" dy="303" grid="1" gridSize="10" guides="1" tooltips="1" connect="1" arrows="1" fold="1" page="1" pageScale="1" pageWidth="850" pageHeight="1100" math="0" shadow="0">
            <root>
                <mxCell id="fjjfcvRkONtM-w9Wy3uy-0"/>
                <mxCell id="fjjfcvRkONtM-w9Wy3uy-1" parent="fjjfcvRkONtM-w9Wy3uy-0"/>
                <mxCell id="m3p21gVQ8U8xHST9_kUH-0" value="A" style="ellipse;whiteSpace=wrap;html=1;aspect=fixed;" vertex="1" parent="fjjfcvRkONtM-w9Wy3uy-1">
                    <mxGeometry x="80" y="40" width="40" height="40" as="geometry"/>
                </mxCell>
                <mxCell id="m3p21gVQ8U8xHST9_kUH-1" value="B" style="ellipse;whiteSpace=wrap;html=1;aspect=fixed;" vertex="1" parent="fjjfcvRkONtM-w9Wy3uy-1">
                    <mxGeometry x="80" y="120" width="40" height="40" as="geometry"/>
                </mxCell>
            </root>
        </mxGraphModel>
    </diagram>
</mxfile>